<svg width="1140" height="6000" viewBox="0 0 1140 6000" fill="none" xmlns="http://www.w3.org/2000/svg">
<line x1="65.5002" y1="2.18557e-08" x2="65.5" y2="6000" stroke="#F6F6F6"/>
<line x1="162.5" y1="2.18557e-08" x2="162.5" y2="6000" stroke="#F6F6F6"/>
<line x1="260.5" y1="2.18557e-08" x2="260.5" y2="6000" stroke="#F6F6F6"/>
<line x1="358.5" y1="2.18557e-08" x2="358.5" y2="6000" stroke="#F6F6F6"/>
<line x1="455.502" y1="2.18557e-08" x2="455.501" y2="6000" stroke="#F6F6F6"/>
<line x1="553.502" y1="2.18557e-08" x2="553.501" y2="6000" stroke="#F6F6F6"/>
<line x1="651.502" y1="2.18557e-08" x2="651.501" y2="6000" stroke="#F6F6F6"/>
<line x1="748.502" y1="2.18557e-08" x2="748.501" y2="6000" stroke="#F6F6F6"/>
<line x1="846.502" y1="2.18557e-08" x2="846.501" y2="6000" stroke="#F6F6F6"/>
<line x1="944.5" y1="2.18557e-08" x2="944.5" y2="6000" stroke="#F6F6F6"/>
<line x1="1041.5" y1="2.18557e-08" x2="1041.5" y2="6000" stroke="#F6F6F6"/>
<line x1="1139.5" y1="2.18557e-08" x2="1139.5" y2="6000" stroke="#F6F6F6"/>
<line x1="0.500244" y1="2.18557e-08" x2="0.499982" y2="6000" stroke="#F6F6F6"/>
<line x1="98.5002" y1="2.18557e-08" x2="98.5" y2="6000" stroke="#F6F6F6"/>
<line x1="195.5" y1="2.18557e-08" x2="195.5" y2="6000" stroke="#F6F6F6"/>
<line x1="293.5" y1="2.18557e-08" x2="293.5" y2="6000" stroke="#F6F6F6"/>
<line x1="391.5" y1="2.18557e-08" x2="391.5" y2="6000" stroke="#F6F6F6"/>
<line x1="488.502" y1="2.18557e-08" x2="488.501" y2="6000" stroke="#F6F6F6"/>
<line x1="586.502" y1="2.18557e-08" x2="586.501" y2="6000" stroke="#F6F6F6"/>
<line x1="684.502" y1="2.18557e-08" x2="684.501" y2="6000" stroke="#F6F6F6"/>
<line x1="781.502" y1="2.18557e-08" x2="781.501" y2="6000" stroke="#F6F6F6"/>
<line x1="879.502" y1="2.18557e-08" x2="879.501" y2="6000" stroke="#F6F6F6"/>
<line x1="977.5" y1="2.18557e-08" x2="977.5" y2="6000" stroke="#F6F6F6"/>
<line x1="1074.5" y1="2.18557e-08" x2="1074.5" y2="6000" stroke="#F6F6F6"/>
</svg>
