<svg width="19" height="57" viewBox="0 0 19 57" fill="none" xmlns="http://www.w3.org/2000/svg">
<path d="M9.50001 9.81648C10.5493 9.81648 11.4 8.96583 11.4 7.91651C11.4 6.86719 10.5493 6.01654 9.50001 6.01654C8.45068 6.01654 7.60004 6.86719 7.60004 7.91651C7.60004 8.96583 8.45068 9.81648 9.50001 9.81648Z" fill="#262626"/>
<path d="M9.50008 0C4.25364 0 0.000244141 4.25403 0.000244141 9.50111V25.3316C0.000244141 30.5787 4.25364 34.8328 9.50008 34.8328C14.7465 34.8328 18.9999 30.5787 18.9999 25.3316V9.50111C18.9999 4.25403 14.7465 0 9.50008 0ZM17.7333 25.3316C17.7333 29.8719 14.0397 33.5661 9.50008 33.5661C4.96043 33.5661 1.26689 29.8719 1.26689 25.3316V9.50111C1.26689 4.96082 4.96043 1.26665 9.50008 1.26665C14.0397 1.26665 17.7333 4.96082 17.7333 9.50111V25.3316Z" fill="#262626"/>
<path d="M17.9188 37.5516L9.5 45.9704L1.08124 37.5516C0.833612 37.304 0.433351 37.304 0.185722 37.5516C-0.0619073 37.7993 -0.0619073 38.1995 0.185722 38.4471L9.05224 47.3137C9.17574 47.4372 9.33787 47.4992 9.5 47.4992C9.66213 47.4992 9.82426 47.4372 9.94776 47.3137L18.8143 38.4471C19.0619 38.1995 19.0619 37.7993 18.8143 37.5516C18.5666 37.304 18.1664 37.304 17.9188 37.5516Z" fill="#262626"/>
<path d="M17.9188 46.4181L9.5 54.8369L1.08124 46.4181C0.833612 46.1705 0.433351 46.1705 0.185722 46.4181C-0.0619073 46.6658 -0.0619073 47.066 0.185722 47.3137L9.05224 56.1802C9.17574 56.3037 9.33787 56.3657 9.5 56.3657C9.66213 56.3657 9.82426 56.3037 9.94776 56.1802L18.8143 47.3137C19.0619 47.066 19.0619 46.6658 18.8143 46.4181C18.5666 46.1705 18.1664 46.1705 17.9188 46.4181Z" fill="#262626"/>
</svg>
